<?xml version="1.0" standalone="no"?>
<!DOCTYPE svg PUBLIC "-//W3C//DTD SVG 1.1//EN" "http://www.w3.org/Graphics/SVG/1.1/DTD/svg11.dtd">
<svg width="200" height="200" viewBox="0 0 200 200" version="1.1" xmlns="http://www.w3.org/2000/svg" xmlns:xlink="http://www.w3.org/1999/xlink">
  <defs>
    <style type="text/css">
      <![CDATA[
@font-face { font-family: ifont; src: url(http://at.alicdn.com/t/font_1442373896_4754455.eot?#iefix) format(embedded-opentype), url(http://at.alicdn.com/t/font_1442373896_4754455.woff) format(woff), url(http://at.alicdn.com/t/font_1442373896_4754455.ttf) format(truetype), url(http://at.alicdn.com/t/font_1442373896_4754455.svg#ifont) format(svg); }

]]>
    </style>
  </defs>
  <g class="transform-group">
    <g transform="scale(0.1953125, 0.1953125)">
      <path d="M999.619048 877.714286C999.619048 958.512762 781.312 1024 512 1024 242.688 1024 24.380952 958.512762 24.380952 877.714286 24.380952 809.496381 180.224 752.39619 390.777905 736.207238 292.62019 613.668571 170.666667 439.393524 170.666667 329.142857 170.666667 144.822857 320.853333 0 512 0 703.146667 0 853.333333 144.822857 853.333333 329.142857 853.333333 439.393524 731.37981 613.668571 633.222095 736.207238 843.776 752.39619 999.619048 809.496381 999.619048 877.714286ZM512 188.708571C430.08 188.708571 366.34819 250.148571 366.34819 329.142857 366.34819 408.137143 430.08 469.577143 512 469.577143 593.92 469.577143 657.65181 408.137143 657.65181 329.142857 657.65181 250.148571 593.92 188.708571 512 188.708571ZM632.880762 736.597333C567.100952 818.712381 512 877.714286 512 877.714286 512 877.714286 456.899048 818.712381 391.119238 736.597333 235.178667 749.372952 121.904762 785.700571 121.904762 828.952381 121.904762 882.834286 296.569905 926.47619 512 926.47619 727.430095 926.47619 902.095238 882.834286 902.095238 828.952381 902.095238 785.700571 788.821333 749.372952 632.880762 736.597333Z" fill="#F53E3D"></path>
    </g>
  </g>
</svg>